<svg width="36" height="43" viewBox="0 0 36 43" fill="none" xmlns="http://www.w3.org/2000/svg">
<path id="Vector" fill-rule="evenodd" clip-rule="evenodd" d="M0.239746 1.59375C0.239746 0.7225 0.994785 0 1.90527 0H34.1055C35.016 0 35.771 0.7225 35.771 1.59375V40.9062C35.771 41.7775 35.016 42.5 34.1055 42.5H1.90527C1.46355 42.5 1.03991 42.3321 0.727568 42.0332C0.415221 41.7343 0.239746 41.3289 0.239746 40.9062V1.59375ZM6.90186 13.8125C6.90186 13.2175 7.39041 12.75 8.01221 12.75H27.9985C28.293 12.75 28.5754 12.8619 28.7837 13.0612C28.9919 13.2605 29.1089 13.5307 29.1089 13.8125C29.1089 14.0943 28.9919 14.3645 28.7837 14.5638C28.5754 14.7631 28.293 14.875 27.9985 14.875H8.01221C7.71772 14.875 7.4353 14.7631 7.22707 14.5638C7.01884 14.3645 6.90186 14.0943 6.90186 13.8125ZM6.90186 28.6875C6.90186 28.0925 7.39041 27.625 8.01221 27.625H19.1157C19.4102 27.625 19.6926 27.7369 19.9009 27.9362C20.1091 28.1355 20.2261 28.4057 20.2261 28.6875C20.2261 28.9693 20.1091 29.2395 19.9009 29.4388C19.6926 29.6381 19.4102 29.75 19.1157 29.75H8.01221C7.71772 29.75 7.4353 29.6381 7.22707 29.4388C7.01884 29.2395 6.90186 28.9693 6.90186 28.6875ZM6.90186 21.25C6.90186 20.655 7.39041 20.1875 8.01221 20.1875H27.9985C28.293 20.1875 28.5754 20.2994 28.7837 20.4987C28.9919 20.698 29.1089 20.9682 29.1089 21.25C29.1089 21.5318 28.9919 21.802 28.7837 22.0013C28.5754 22.2006 28.293 22.3125 27.9985 22.3125H8.01221C7.71772 22.3125 7.4353 22.2006 7.22707 22.0013C7.01884 21.802 6.90186 21.5318 6.90186 21.25Z" fill="black"/>
</svg>
